Patient4_TMGait_0pt6_02_left_43_EMG.mot
version=1
nRows=30
nColumns=33
inDegrees=no
endheader
time	1LAddLong	2LGlutMax	3LGlutMed	4LIliopsoas	5LSemiMemb	6LBicFemLong	7LRecFem	8LVastMed	9LVastLat	10LGasMed	11LTibAnt	12lTibPost	13LPeroneusLong	14LSol	15LExtDigLong	16LFlexDigLong	17RAddLong	18RGlutMax	19RGlutMed	20RIliopsoas	21RSemiMemb	22RBicFemLong	23RRecFem	24RVastMed	25RVastLat	26RGasMed	27RTibAnt	28RTibPost	29RPeroneusLong	30RSol	31RExtDigLong	32RFlexDigLong
52.917	-0.015106	2.039	0.060883	0.009308	-0.055237	-0.019226	1.7412	-0.004578	-0.37796	-0.18021	0.066528	-0.001984	-0.037842	0.16235	0.21027	-0.046692	0.032959	0.74295	0.44922	0.073242	-0.098724	-0.033417	0.82504	-0.36636	-0.011597	-0.009613	-0.10193	-0.009918	0.063019	0.43076	-0.004272	0.000916
52.918	-0.016174	1.9644	0.20813	0.020294	-0.027466	0.049744	1.4561	-0.018158	-0.42419	-0.13733	0.012512	0.00946	-0.05661	-0.007172	0.1857	0.31845	0.027161	0.61768	0.56412	0.094604	-0.0737	-0.041199	0.85007	-0.35446	-0.019531	-0.009003	0.31189	-0.015717	-0.12619	0.26184	-0.00473	0.001526
52.919	-0.021362	1.8886	0.31769	-0.00351	-0.010071	0.12528	1.1533	-0.005798	-0.44632	-0.033264	-0.090942	0.018158	-0.010223	-0.21927	0.18021	0.81177	0.00412	0.53406	0.69366	0.031586	-0.081024	-0.049591	0.81726	-0.34347	0.004578	-0.006561	0.34317	-0.000153	-0.051422	0.16846	-0.005798	0.000153
52.92	-0.021515	1.7557	0.37872	0.035553	-0.045776	0.17654	0.82947	0.016632	-0.35614	0.014954	0.076599	0.025177	-0.001678	-0.43945	0.15289	0.41779	-0.029449	0.48782	0.62729	-0.018311	-0.11154	-0.036926	0.81131	-0.33859	0.001068	-0.000458	0.62454	-0.011139	0.112	0.10437	-0.003815	0.000916
52.921	-0.015411	1.6194	0.29068	0.015106	-0.11795	0.21362	0.5452	0.027008	-0.19821	0.02243	0.050201	0.042877	-0.002441	-0.51331	0.13489	-0.93384	-0.097656	0.33554	0.63995	-0.0354	-0.091858	0.060577	0.80841	-0.32974	0.012512	-0.00351	0.62042	-0.00824	0.10254	0.049133	-0.007019	0.00351
52.922	0.000458	1.4241	0.073242	-0.007324	-0.18341	0.23865	0.35721	0.031128	-0.058594	0.015411	0.092316	0.092926	-0.024261	-0.672	0.18707	-0.33539	-0.17303	0.21973	0.52978	-0.034637	-0.11002	0.086212	0.74036	-0.3537	0.021057	-0.009766	0.44815	-0.010376	0.005951	-0.021362	-0.007782	-0.006561
52.923	0.01709	1.2599	-0.020599	0.007782	-0.24506	0.20218	0.15549	0.008545	0.026703	-0.011444	0.2124	0.056305	-0.099945	-0.52185	0.22842	0.88684	-0.16342	0.10696	0.54596	-0.023956	-0.11429	0.099945	0.75211	-0.28748	0.042572	-0.005646	-0.46555	-0.005798	0.041199	-0.050049	-0.007629	0.000916
52.924	0.038147	1.1438	-0.03952	0.028534	-0.17334	-0.066376	0.049591	-0.020905	0.057373	-0.065308	0.14801	-0.008087	-0.095825	-0.20905	0.37888	-0.33951	-0.15945	0.020142	0.62241	-0.06134	-0.11002	0.16098	0.70175	-0.1355	0.066528	-0.003204	-0.88211	-0.008545	-0.027161	-0.039063	-0.00946	-0.005493
52.925	0.036011	0.84274	-0.050659	0.007629	-0.045624	-0.39185	-0.099335	-0.026093	-0.078125	-0.093384	0.1033	0.023499	-0.045319	0.016022	0.26291	-0.2214	-0.10895	-0.062103	0.64545	-0.10086	-0.11398	0.073242	0.72952	-0.19363	0.068054	0.001526	-0.58731	-0.010986	-0.11688	-0.066833	-0.00351	-0.002289
52.926	0.039825	0.68848	-0.076599	-0.015259	0.02182	-0.29556	-0.29831	0.003967	-0.18265	-0.051575	-0.09613	0.033417	0.032959	0.1828	0.061951	0.31708	-0.018158	-0.12878	0.62241	-0.15671	-0.090027	-0.093689	0.75638	-0.17487	0.087738	0.000153	-0.50125	-0.006561	-0.103	-0.10681	-0.006104	-0.007629
52.927	0.041656	0.63309	-0.076294	-0.003967	0.11383	-0.11658	-0.45471	0.004578	-0.15671	0.017242	-0.29709	0.04715	0.022278	0.28412	0.12528	0.28809	0.083313	-0.15884	0.82413	-0.20706	-0.006104	-0.19623	0.74692	-0.14908	0.067749	-0.000458	0.24521	-0.005646	-0.16983	-0.12512	-0.016479	-0.005493
52.928	0.045471	0.58731	-0.011292	0.000153	0.11612	0.007172	-0.5629	0.002136	-0.1384	0.045929	-0.20325	0.11078	0.055542	0.30106	0.035858	0.40924	0.17029	-0.11383	1.0547	-0.13428	0.019989	-0.27802	0.74265	-0.1648	0.053101	0.001221	0.3598	-0.002594	-0.12436	-0.12222	-0.001221	-0.009766
52.929	0.0354	0.53497	-0.043945	-0.002136	0.037079	-0.26352	-0.55679	-0.000458	-0.16205	0.12177	-0.041199	0.10666	0.061493	0.36163	-0.11566	-0.45319	0.18188	-0.13275	0.93536	0.018768	-0.011902	-0.31525	0.71121	-0.12985	0.047455	0.000458	0.43045	-0.010223	-0.1564	-0.081482	-0.004272	-0.006409
52.93	0.042877	0.42664	-0.12024	-0.007324	-0.082703	-0.30441	-0.67932	0.003815	-0.17075	0.16251	-0.064392	0.0354	0.019531	0.36713	-0.19043	-0.14206	0.14999	-0.23315	0.36453	0.090485	0.020752	-0.25589	0.63187	0.034485	0.067749	0.012207	1.0358	-0.005188	-0.048523	-0.19226	-0.006561	-0.001221
52.931	0.036163	0.28534	-0.17181	-0.003815	-0.080261	-0.14908	-0.81863	-0.000916	-0.1535	-0.048828	-0.10391	0.02243	0.045471	0.40558	-0.22858	0.30868	0.16953	-0.25559	0.33295	0.19043	0.018158	-0.2182	0.62286	0.0914	0.044556	0.024109	-0.028076	-0.008698	0.36575	-0.30167	-0.007172	0.014648
52.932	0.033112	0.29999	-0.070648	0.021362	-0.098267	-0.094452	-0.96283	0.00412	-0.15686	-0.1886	-0.099335	0.086212	0.018616	0.48904	-0.3302	-1.8478	0.14481	-0.32028	0.42313	0.24887	-0.012817	-0.080261	0.62195	0.18036	0.01709	0.015869	-0.952	-0.006256	0.39841	-0.31967	-0.001831	0.004883
52.933	0.037231	0.31387	0.048218	0.027771	-0.050659	0.041809	-1.0191	0.011749	-0.21103	-0.11307	-0.034485	0.19302	-0.069122	0.75226	-0.29862	0.93414	0.024567	-0.37918	0.2179	0.29953	0.040741	0.10895	0.74616	0.07309	-0.056458	0.00351	-0.69214	-0.013275	0.18448	-0.22766	-0.003662	-0.004425
52.934	0.022736	0.38452	0.1387	-0.007019	-0.023804	0.18234	-1.0739	0.000153	-0.27893	0.005188	0.00824	0.15137	-0.014648	0.9613	-0.052185	-0.66208	-0.027466	-0.48584	0.34256	0.45776	0.084686	0.051727	0.81955	0.10544	-0.075836	-0.005035	-0.83374	-0.001831	0.11078	-0.16815	-0.001831	-0.005646
52.935	0.025024	0.41519	0.13214	-0.004425	-0.044403	0.028534	-1.1465	0.014954	-0.29984	0.013123	0.15289	-0.066376	0.040588	0.71533	1.225	0.66376	-0.014954	-0.48599	0.48752	0.43488	0.033875	-0.065613	0.77743	0.14938	-0.058441	-0.007019	-1.0652	-0.010681	0.16235	-0.005798	-0.007324	-0.002136
52.936	0.032806	0.50369	0.033112	-0.007324	0.037994	-0.18112	-1.1757	0.009003	-0.2301	-0.066833	0.14267	0.16892	0.17532	0.72601	0.041962	1.433	-0.026245	-0.522	0.54413	-0.012665	0.026398	-0.090027	0.83481	0.08316	-0.052185	-0.009003	-0.93155	-0.010071	0.059204	0.24292	-0.007172	-0.001678
52.937	0.032349	0.56992	-0.046082	-0.005341	0.057983	-0.2359	-1.1758	0.013733	-0.030518	0.12604	0.10696	0.044861	0.19913	0.56381	-0.23315	-0.28625	-0.020905	-0.5719	0.59006	-0.23621	-0.023193	-0.11536	0.76446	0.087585	-0.050659	-0.004272	-0.33173	-0.013733	-0.007477	0.28046	-0.010071	0.001221
52.938	0.035248	0.811	0.11887	0.010071	0.034027	-0.16098	-1.1815	0.016937	0.11673	0.31326	0.054016	-0.030518	0.16403	0.41534	-0.54153	-0.46677	-0.021515	-0.63324	0.46539	-0.19577	-0.080109	-0.22827	0.83359	0.026855	-0.047913	0.005341	0.30609	-0.006104	0.007782	0.14679	-0.005493	-0.001068
52.939	0.016174	1.1128	0.21255	-0.00351	0.016632	0.023956	-1.1909	0.012665	0.21225	0.25559	0.062561	0.019836	0.06073	0.078735	-0.43152	0.37308	-0.049438	-0.63522	0.48584	-0.0914	-0.12238	-0.2565	0.87006	0.004425	-0.044098	0.005188	0.75455	-0.002136	0.065765	0.025024	-0.007324	-0.000763
52.94	0.019989	1.3933	-0.016937	-0.002441	-0.01236	0.1413	-1.2636	0.00351	0.38544	0.21286	-0.0737	-0.036469	-0.012054	-0.53833	-0.38406	-0.37491	-0.076141	-0.60288	0.41336	-0.14999	-0.112	-0.29129	0.83054	-0.1416	-0.037537	0.002441	0.031433	-0.004578	-0.004578	-0.082245	-0.007935	-0.00061
52.941	0.011444	1.6422	-0.30151	-0.000305	-0.024414	0.077515	-1.1467	-0.009918	0.44495	0.21637	-0.17425	0.055389	0.0177	-1.0289	-0.38238	0.25635	-0.098267	-0.72601	0.19165	-0.12604	-0.070648	-0.16144	0.75546	-0.14603	-0.022736	0.007629	-1.1809	-0.003357	0.062408	-0.087128	-0.004883	-0.001678
52.942	0.015869	1.8134	-0.38086	-0.016632	-0.043182	-0.053711	-0.98068	-0.00885	0.20523	0.090027	-0.046997	0.070648	-0.020752	-1.591	-0.1622	0.14221	-0.054169	-0.87051	0.18967	-0.11322	-0.049286	-0.10101	0.63751	-0.16403	-0.005951	0.005035	-0.39383	-0.007477	-0.040741	0.08667	-0.008698	-0.001984
52.943	0.014954	1.8793	-0.28809	0.005341	-0.070496	-0.018311	-0.85815	-0.010986	-0.18066	-0.17502	0.006866	0.065308	-0.014343	-1.9757	0.072021	0.45685	-0.060883	-0.92972	0.35965	-0.006409	-0.069885	-0.14038	0.5864	-0.12177	0.001831	0.00885	0.25818	-0.006714	0.055695	0.19898	-0.004883	-0.007324
52.944	0.020905	1.8735	0.044556	0.017242	-0.029449	0.046082	-0.71732	-0.016632	-0.40405	-0.24628	0.10635	-0.016327	0.033112	-1.9426	0.29633	-0.37796	-0.053864	-0.94986	0.6073	0.091095	-0.15671	-0.15717	0.56183	-0.19211	-0.007019	0.005493	0.49988	-0.007477	-0.002441	0.18356	-0.00412	-0.001984
52.945	0.024567	1.6644	0.082855	0.017242	0.01358	0.086365	-0.6337	0.000458	-0.29739	-0.18005	0.25345	-0.033264	-0.031433	-1.4928	0.55054	-0.33829	-0.023041	-0.99655	0.36179	0.13504	-0.20752	-0.16876	0.54901	-0.224	-0.01358	-0.002441	0.60211	-0.008392	-0.14252	0.20584	-0.000458	-0.008392
52.946	-0.00351	1.2454	0.051575	0.014648	0.02655	0.14313	-0.50583	0.006104	-0.15808	-0.3241	0.17242	0.041809	-0.023956	-1.0071	0.37674	-0.09964	0.029755	-1.0692	-0.001678	0.12909	-0.19531	-0.19669	0.60989	-0.24124	-0.028992	-0.001678	0.14236	-0.003967	-0.067444	0.21851	-0.008545	-0.006561
